<svg width="395" height="272" viewBox="0 0 395 272" fill="none" xmlns="http://www.w3.org/2000/svg">
<path d="M180.743 174.665C166.749 188.974 148.919 198.719 129.508 202.667C110.097 206.615 89.9771 204.588 71.6924 196.844C53.4078 189.1 37.7796 175.986 26.7842 159.16C15.7889 142.334 9.92011 122.553 9.9201 102.316C9.9201 82.0801 15.7889 62.2983 26.7842 45.4724C37.7796 28.6466 53.4078 15.5324 71.6924 7.78837C89.977 0.0442884 110.097 -1.98192 129.508 1.96598C148.919 5.91387 166.749 15.6586 180.743 29.9677L121.298 90.7495C119.061 88.4619 116.21 86.9039 113.107 86.2727C110.004 85.6416 106.787 85.9655 103.864 87.2036C100.94 88.4417 98.4419 90.5383 96.684 93.2284C94.9261 95.9184 93.9879 99.081 93.9879 102.316C93.9879 105.552 94.9261 108.714 96.684 111.404C98.4419 114.094 100.94 116.191 103.864 117.429C106.787 118.667 110.004 118.991 113.107 118.36C116.21 117.729 119.061 116.171 121.298 113.883L180.743 174.665Z" fill="#F2BE22"/>
<rect width="133.657" height="85.9223" transform="matrix(0.699201 0.714926 -0.699201 0.714926 190.831 38.6099)" fill="#2D3E40"/>
<rect width="133.657" height="85.9223" transform="matrix(0.699201 -0.714926 0.699201 0.714926 164.798 134.414)" fill="#387373"/>
<rect width="133.657" height="85.9223" transform="matrix(-0.699201 -0.714926 0.699201 -0.714925 291.627 195.842)" fill="#93BFB7"/>
<rect width="133.657" height="85.9223" transform="matrix(0.699201 -0.714926 0.699201 0.714926 231.55 134.414)" fill="#E4F2E7"/>
<path d="M20.4946 271.411C14.4413 271.411 9.94462 269.379 7.00447 265.315C4.10756 261.207 2.65911 255.435 2.65911 247.998C2.65911 240.561 4.10756 234.811 7.00447 230.746C9.94462 226.639 14.4413 224.585 20.4946 224.585C22.8294 224.585 24.8832 224.909 26.6559 225.558C28.4719 226.163 30.0284 227.028 31.3256 228.152C32.6227 229.276 33.682 230.638 34.5035 232.238C35.3683 233.838 36.0384 235.632 36.5141 237.621L27.4342 239.826C27.1748 238.745 26.8721 237.751 26.5262 236.843C26.1803 235.935 25.7263 235.156 25.1642 234.508C24.6454 233.859 23.9752 233.362 23.1537 233.016C22.3754 232.627 21.4242 232.432 20.3 232.432C17.6625 232.432 15.7817 233.47 14.6575 235.546C13.5766 237.578 13.0361 240.41 13.0361 244.042V251.954C13.0361 255.586 13.5766 258.44 14.6575 260.515C15.7817 262.547 17.6625 263.563 20.3 263.563C22.5483 263.563 24.1698 262.872 25.1642 261.488C26.2019 260.104 26.9586 258.332 27.4342 256.17L36.5141 258.375C36.0384 260.364 35.3683 262.158 34.5035 263.758C33.682 265.358 32.6227 266.741 31.3256 267.909C30.0284 269.033 28.4719 269.898 26.6559 270.503C24.8832 271.108 22.8294 271.411 20.4946 271.411ZM44.8552 270.633V225.363H54.6485V262.655H74.1053V270.633H44.8552ZM97.2337 271.411C91.1804 271.411 86.7053 269.357 83.8084 265.25C80.9548 261.142 79.5279 255.392 79.5279 247.998C79.5279 240.604 80.9548 234.854 83.8084 230.746C86.7053 226.639 91.1804 224.585 97.2337 224.585C103.287 224.585 107.74 226.639 110.594 230.746C113.491 234.854 114.939 240.604 114.939 247.998C114.939 255.392 113.491 261.142 110.594 265.25C107.74 269.357 103.287 271.411 97.2337 271.411ZM97.2337 263.563C100.001 263.563 101.903 262.547 102.941 260.515C104.022 258.44 104.562 255.565 104.562 251.889V244.042C104.562 240.41 104.022 237.578 102.941 235.546C101.903 233.47 100.001 232.432 97.2337 232.432C94.4665 232.432 92.5424 233.47 91.4615 235.546C90.4238 237.578 89.9049 240.41 89.9049 244.042V251.954C89.9049 255.586 90.4238 258.44 91.4615 260.515C92.5424 262.547 94.4665 263.563 97.2337 263.563ZM135.409 271.411C131.604 271.411 128.296 270.784 125.486 269.53C122.675 268.276 120.405 266.568 118.676 264.407L124.318 258.18C125.961 259.996 127.756 261.337 129.701 262.202C131.69 263.066 133.701 263.499 135.733 263.499C138.068 263.499 139.84 262.98 141.051 261.942C142.262 260.904 142.867 259.413 142.867 257.467C142.867 255.867 142.392 254.657 141.44 253.835C140.532 253.014 138.976 252.43 136.771 252.084L132.036 251.306C127.972 250.614 125.032 249.122 123.216 246.831C121.4 244.496 120.492 241.664 120.492 238.334C120.492 233.967 121.919 230.595 124.772 228.217C127.626 225.796 131.625 224.585 136.771 224.585C140.273 224.585 143.321 225.125 145.915 226.206C148.51 227.287 150.607 228.757 152.206 230.617L146.694 236.778C145.483 235.437 144.056 234.4 142.413 233.665C140.77 232.886 138.911 232.497 136.835 232.497C132.469 232.497 130.285 234.292 130.285 237.88C130.285 239.437 130.761 240.604 131.712 241.383C132.706 242.161 134.306 242.745 136.511 243.134L141.246 243.977C144.921 244.625 147.753 246.009 149.742 248.128C151.731 250.246 152.725 253.1 152.725 256.689C152.725 258.807 152.358 260.775 151.623 262.591C150.888 264.363 149.785 265.92 148.315 267.26C146.845 268.557 145.029 269.573 142.867 270.309C140.748 271.044 138.262 271.411 135.409 271.411ZM160.742 270.633V225.363H189.668V233.34H170.471V243.717H189.019V251.695H170.471V262.655H189.668V270.633H160.742ZM197.944 270.633L195.155 225.363H203.522L204.819 252.473L205.208 261.034H205.792L209.683 235.221H218.439L222.33 261.034H222.914L223.303 252.732L224.6 225.363H232.642L229.853 270.633H217.531L214.223 245.663H213.575L210.267 270.633H197.944ZM261.543 270.633L258.689 259.737H246.302L243.513 270.633H233.655L245.913 225.363H259.662L271.92 270.633H261.543ZM252.787 234.767H252.268L247.858 251.889H257.198L252.787 234.767ZM296.54 233.34V270.633H286.811V233.34H273.775V225.363H309.576V233.34H296.54ZM331.602 271.411C325.549 271.411 321.052 269.379 318.112 265.315C315.215 261.207 313.766 255.435 313.766 247.998C313.766 240.561 315.215 234.811 318.112 230.746C321.052 226.639 325.549 224.585 331.602 224.585C333.937 224.585 335.99 224.909 337.763 225.558C339.579 226.163 341.136 227.028 342.433 228.152C343.73 229.276 344.789 230.638 345.611 232.238C346.475 233.838 347.146 235.632 347.621 237.621L338.541 239.826C338.282 238.745 337.979 237.751 337.633 236.843C337.288 235.935 336.834 235.156 336.271 234.508C335.753 233.859 335.082 233.362 334.261 233.016C333.483 232.627 332.531 232.432 331.407 232.432C328.77 232.432 326.889 233.47 325.765 235.546C324.684 237.578 324.143 240.41 324.143 244.042V251.954C324.143 255.586 324.684 258.44 325.765 260.515C326.889 262.547 328.77 263.563 331.407 263.563C333.656 263.563 335.277 262.872 336.271 261.488C337.309 260.104 338.066 258.332 338.541 256.17L347.621 258.375C347.146 260.364 346.475 262.158 345.611 263.758C344.789 265.358 343.73 266.741 342.433 267.909C341.136 269.033 339.579 269.898 337.763 270.503C335.99 271.108 333.937 271.411 331.602 271.411ZM375.16 251.695H363.745V270.633H353.952V225.363H363.745V243.717H375.16V225.363H384.953V270.633H375.16V251.695Z" fill="#2D3E40"/>
</svg>
